<svg xmlns="http://www.w3.org/2000/svg" viewBox="0 0 33 33"><path fill="#ffffff" d="M0 0h33v33H0z"/><path stroke="#000000" d="M0 0.5h7m1 0h2m1 0h2m4 0h1m1 0h3m1 0h1m2 0h7M0 1.5h1m5 0h1m2 0h4m3 0h2m1 0h2m5 0h1m5 0h1M0 2.5h1m1 0h3m1 0h1m2 0h2m2 0h1m1 0h2m5 0h1m3 0h1m1 0h3m1 0h1M0 3.5h1m1 0h3m1 0h1m1 0h1m1 0h1m1 0h1m1 0h1m2 0h4m1 0h3m1 0h1m1 0h3m1 0h1M0 4.5h1m1 0h3m1 0h1m1 0h1m1 0h1m3 0h1m3 0h3m1 0h3m1 0h1m1 0h3m1 0h1M0 5.5h1m5 0h1m1 0h7m1 0h1m1 0h2m4 0h1m1 0h1m5 0h1M0 6.5h7m1 0h1m1 0h1m1 0h1m1 0h1m1 0h1m1 0h1m1 0h1m1 0h1m1 0h1m1 0h7M8 7.5h1m3 0h1m2 0h3m3 0h1m1 0h1M0 8.5h1m3 0h1m1 0h4m1 0h1m1 0h1m4 0h4m3 0h5m2 0h1M0 9.5h1m2 0h3m1 0h2m2 0h1m1 0h2m1 0h1m2 0h1m2 0h4m1 0h1m1 0h3M0 10.5h2m1 0h1m2 0h3m1 0h1m1 0h1m3 0h2m2 0h1m2 0h1m4 0h2m1 0h1M0 11.5h1m3 0h1m2 0h1m1 0h1m4 0h6m1 0h2m3 0h1m1 0h1m3 0h1M1 12.5h3m2 0h1m1 0h1m1 0h1m2 0h2m3 0h4m2 0h3m1 0h1M1 13.5h2m2 0h1m1 0h2m4 0h1m2 0h2m1 0h1m3 0h2m2 0h1m1 0h1M1 14.5h2m3 0h1m7 0h1m1 0h4m2 0h6m2 0h2M0 15.5h3m1 0h1m4 0h2m3 0h1m2 0h7m1 0h1m2 0h1m2 0h1M0 16.5h1m2 0h1m1 0h2m1 0h2m3 0h1m1 0h2m1 0h1m1 0h3m1 0h7m1 0h1M0 17.5h1m1 0h1m1 0h2m1 0h1m2 0h1m3 0h1m1 0h3m1 0h2m5 0h1m4 0h1M3 18.5h7m3 0h2m1 0h1m1 0h2m3 0h1m1 0h1m2 0h2m1 0h2M0 19.5h2m3 0h1m1 0h2m2 0h1m1 0h4m2 0h1m1 0h3m1 0h1m2 0h1m2 0h2M0 20.5h3m3 0h2m2 0h4m1 0h2m3 0h2m1 0h4m1 0h1m3 0h1M0 21.5h3m2 0h1m1 0h3m4 0h1m2 0h4m2 0h1m3 0h1m1 0h3M2 22.5h2m1 0h2m1 0h2m4 0h2m1 0h1m3 0h1m1 0h2m1 0h2m1 0h1m1 0h1M5 23.5h1m1 0h1m1 0h3m1 0h1m1 0h2m1 0h1m2 0h1m1 0h1m2 0h1m1 0h2m1 0h1M0 24.5h3m1 0h1m1 0h1m3 0h1m2 0h1m2 0h1m1 0h2m1 0h2m1 0h5m1 0h3M8 25.5h1m1 0h1m1 0h3m1 0h1m2 0h3m1 0h2m3 0h3M0 26.5h7m1 0h6m2 0h2m3 0h2m1 0h1m1 0h1m1 0h1m2 0h1M0 27.5h1m5 0h1m5 0h1m2 0h4m5 0h1m3 0h1M0 28.5h1m1 0h3m1 0h1m1 0h3m1 0h1m1 0h2m2 0h2m1 0h2m1 0h6m1 0h2M0 29.5h1m1 0h3m1 0h1m4 0h2m3 0h2m1 0h2m1 0h1m1 0h3m1 0h3m1 0h1M0 30.5h1m1 0h3m1 0h1m4 0h2m1 0h1m1 0h2m4 0h2m1 0h2m1 0h1m1 0h1M0 31.5h1m5 0h1m2 0h2m2 0h1m4 0h1m1 0h3m1 0h2m1 0h1M0 32.5h7m1 0h2m1 0h1m1 0h1m1 0h2m1 0h2m4 0h3m5 0h1"/></svg>